<?xml version="1.0" encoding="utf-8"?>
<!-- Generator: Adobe Illustrator 26.0.2, SVG Export Plug-In . SVG Version: 6.00 Build 0)  -->
<svg version="1.1" id="Layer_1" xmlns="http://www.w3.org/2000/svg" xmlns:xlink="http://www.w3.org/1999/xlink" x="0px" y="0px"
	 viewBox="0 0 164.1 87" style="enable-background:new 0 0 164.1 87;" xml:space="preserve">
<style type="text/css">
	.st0{fill:#4CAB82;}
</style>
<path class="st0" d="M84,44c-8.4,5.8-17.4,10.8-27,14.1c-4.7,1.6-9.6,2.9-14.6,3.5c-4.8,0.6-9.8,0.8-14.5,0.2
	c-4.1-0.6-8.3-2-11.3-4.9c1,2.4,2,4.8,3,7.2c0.5,1.2-1.4,2.1-1.9,0.8c-1.6-3.7-3.2-7.5-4.8-11.2c-0.3-0.7,0.2-1.3,0.8-1.5
	c4.2-1.2,8.6-1.8,12.9-1.9c0.6,0,1.1,0.3,1.2,0.9c0.1,0.5-0.3,1.2-0.9,1.2c-3.5,0.1-7,0.5-10.4,1.2c0,0,0,0,0,0.1
	C19,57.2,23,58.9,27,59.6c4.5,0.8,9.3,0.7,13.8,0.2c9.7-1.1,19-4.4,27.7-8.9c4.9-2.5,9.6-5.4,14.2-8.5c0.5-0.3,1.1-0.3,1.5,0.2
	C84.5,43,84.5,43.7,84,44z"/>
<g>
	<g>
		<path class="st0" d="M48.5,36.8c0.1,0,0.2,0,0.3-0.1c0.1,0,0.2-0.1,0.4-0.1c0.1-0.1,0.3-0.1,0.4-0.2c0.1-0.1,0.3-0.1,0.4-0.2
			s0.3-0.2,0.4-0.2c0.1-0.1,0.3-0.2,0.5-0.3c1.1-0.7,1.9-1.2,2.3-1.7c0.4-0.4,0.7-0.6,1-0.7c0.2-0.1,0.4-0.1,0.6,0.1
			c0.2,0.2,0.3,0.4,0.3,0.7c0,0.3-0.1,0.6-0.4,1c-0.3,0.4-0.6,0.7-1,1.1c-0.2,0.2-0.6,0.5-1.2,0.9c-0.6,0.6-1.3,1.1-2.1,1.5
			c-0.8,0.5-1.6,0.7-2.2,0.6c-1.4-0.3-2.4-0.9-2.9-1.8c-0.5-0.9-0.8-1.9-0.9-3.2c-0.2-1.5-0.2-3.1,0.2-4.5c0,0,0.1-0.3,0.2-0.9
			c0.1-0.6,0.3-1,0.3-1.1c0.2-0.7,0.6-1.7,1.2-2.9c0.8-1.6,1.4-2.7,1.8-3.4c0.5-0.6,1.2-1.4,2.3-2.4c0.4-0.4,0.8-0.6,1.4-0.8
			c0.6-0.2,1.2-0.1,1.8,0.1c0.6,0.2,1.1,0.6,1.5,1.2c0.5,0.6,0.6,1.7,0.4,3.1c-0.2,1.4-0.7,2.5-1.3,3.3c-0.5,0.4-1.1,0.3-1.9-0.2
			c-0.3-0.4-0.4-0.5-0.3-0.6c0,0,0.1,0,0.1,0c0.1-0.2,0.3-0.6,0.5-1.2c0.2-0.6,0.4-1,0.4-1.3c0-0.3,0.1-0.5,0.1-0.7
			c0-0.2,0-0.3,0-0.5c0-0.1,0-0.2,0-0.3c0-0.1,0-0.2,0-0.3c0-0.1,0-0.1,0-0.2c0-0.1-0.1-0.2-0.2-0.3c-0.1-0.1-0.4,0-0.9,0.3
			c-0.8,0.5-1.7,1.6-2.6,3.4c-1.2,2.2-2,3.9-2.2,5L47,30c0.1,0.3,0,0.7-0.1,1.2c-0.1,1.3-0.1,2.4,0.2,3.4c0.3,1.3,0.7,2,1.3,2.1
			C48.3,36.8,48.4,36.8,48.5,36.8z"/>
		<path class="st0" d="M64,32.7l0-2c0-0.4-0.1-0.6-0.3-0.6c-0.4,0-0.9,0.4-1.7,1.1c-0.8,0.7-1.6,1.6-2.4,2.7c-0.5,0.9-1,1.3-1.5,1.4
			c-0.3,0-0.6-0.2-0.9-0.5c-0.3-0.3-0.5-0.6-0.5-1c0-0.4,0.1-1.5,0.5-3.3c0-0.4,0.1-0.9,0.3-1.4c0.2-0.5,0.3-1,0.4-1.5
			c0.1-0.5,0.3-1.5,0.7-2.9c0.4-1.5,0.7-2.5,0.8-3.1c0.2-0.6,0.3-1,0.3-1.3c0.1-0.4,0.2-0.7,0.3-1.1c0-0.1,0.1-0.3,0.3-0.4
			c0.2-0.1,0.4-0.2,0.6-0.3c0.2,0,0.5,0.1,0.8,0.5c0.5,0.6,0.6,1.2,0.4,1.9c-0.2,0.7-0.6,2-1.1,4.1c-0.5,2.1-0.9,3.3-1.1,3.8
			l-0.2,0.6L59.2,31c0,0.1,0,0.1,0,0.1c0.7-0.9,1.4-1.6,2-2.1c0.6-0.5,0.9-0.8,0.9-0.9c0.1-0.1,0.3-0.3,0.7-0.6
			c0.4-0.3,0.9-0.5,1.5-0.6c0.3,0,0.7,0.2,1.1,0.6c0.4,0.4,0.7,0.9,0.7,1.5l0,0.4c0,0.4-0.1,1.4-0.3,3c0.1,0,0.2,0,0.4-0.1
			c0.3,0,0.6,0,0.8,0.2c0.2,0.1,0.3,0.2,0.3,0.2c0,0,0.1,0.1,0.1,0.2c0,0.4-0.2,0.8-0.6,1.1c-0.4,0.3-0.8,0.5-1.2,0.6
			c-0.5,0-0.9-0.1-1.2-0.4C64.2,33.6,64,33.2,64,32.7z"/>
		<path class="st0" d="M69,34.2c0-0.2-0.1-0.4-0.4-0.6c-0.3-0.3,0.2-1.6,1.5-4.2c0.1-0.1,0.2-0.3,0.4-0.6c0.2-0.3,0.3-0.4,0.3-0.5
			c0-0.1,0-0.1,0.1-0.2C71,28.1,71,28,71.1,28l0.2-0.4c0.1-0.2,0.4-0.6,1-1.2c0.6-0.6,1.1-1.1,1.4-1.3c0.4-0.2,0.7-0.4,1.1-0.4
			c0.4,0,0.7,0.1,1,0.3c0,0.1,0.2,0.1,0.4,0.3c0.3,0.3,1.1,0.9,2.3,1.9l-0.4,1.3c-0.4,1.2-0.2,2.2,0.4,3.2c0.2,0.4,0.5,0.6,0.9,0.6
			c0.4,0.1,0.6,0.2,0.7,0.6c0,0.7-0.2,1.1-0.7,1.3c-1.4,0.2-2.4-0.3-3.1-1.6c-0.3-0.3-0.4-0.7-0.5-1.1c-0.1,0.2-0.3,0.4-0.6,0.7
			c-2.3,2.5-4.1,3.4-5.3,2.7c-0.1-0.1-0.2-0.2-0.5-0.4C69.2,34.3,69,34.2,69,34.2z M75,27.1c-0.6,0-1.7,1.3-3.1,3.9
			c-0.2,0.4-0.5,1-0.6,1.7c0.3,0,0.8-0.3,1.6-1c0.2-0.1,0.4-0.3,0.6-0.6c0.3-0.2,0.5-0.4,0.6-0.5c0.1-0.1,0.3-0.3,0.5-0.4
			c0.3-0.3,0.6-0.7,0.9-1.1l0.5-1C75.6,27.4,75.3,27.1,75,27.1z"/>
		<path class="st0" d="M88.2,26.8l0.7-0.2c0.3,0,0.5,0.1,0.8,0.3c0.3,0.2,0.4,0.4,0.4,0.6c0,0.1,0.1,0.1,0.2,0.2
			c0.3,0.3,0.5,0.7,0.5,1.2c0,0.4-0.1,1.2-0.4,2.4c-0.3,1.1-0.4,1.8-0.4,2.1c0,0.3,0,0.5,0.1,0.7c0.1,0.2,0.1,0.4,0.1,0.5
			c0,0.1-0.1,0.2-0.2,0.4c-0.2,0.2-0.4,0.2-0.8,0.2c-0.3,0-0.7-0.2-1-0.6c-0.3-0.4-0.5-0.9-0.5-1.4c0-0.6,0.2-1.6,0.6-3
			c0-0.1,0-0.2,0.1-0.3c0-0.1,0-0.1,0-0.2c0,0,0-0.1,0-0.1c0,0,0-0.1,0-0.1c0-0.1,0-0.1-0.1-0.1c-0.1,0-0.2,0-0.3,0.1
			c-0.2,0.1-0.3,0.2-0.4,0.3c-0.1,0.1-0.3,0.3-0.6,0.5c-0.2,0.2-0.4,0.4-0.6,0.5c-0.2,0.1-0.5,0.4-1.1,0.9c-1.5,1.2-2.2,1.9-2.4,1.8
			c-0.1,0-0.4-0.1-0.8-0.4c-0.4-0.3-0.6-0.5-0.6-0.8c0-0.3,0.2-0.9,0.5-1.9c0.3-0.9,0.7-1.9,1.2-2.8c0.1-0.1,0.1-0.4,0.2-1
			c0.1-0.8,0.4-1.3,0.8-1.3c0.4,0,0.7,0.2,1,0.5c0.3,0.4,0.5,0.7,0.5,1.1c0,0.4-0.1,0.8-0.3,1.3c-0.2,0.5-0.3,0.8-0.4,0.9
			c0,0,0.1-0.1,0.2-0.1c0.2-0.2,0.5-0.4,0.8-0.6c0.5-0.4,1-0.7,1.4-0.9L88.2,26.8z"/>
		<path class="st0" d="M95,32.9l-0.4,0c-0.5,0-0.9-0.2-1.3-0.6c-0.4-0.4-0.5-0.9-0.5-1.7c0-0.3,0.2-0.8,0.5-1.5
			c0.3-0.7,0.8-1.3,1.3-1.8c0.6-0.5,1.3-0.9,2.3-1.4c1-0.4,1.7-0.6,2.3-0.6c0.2,0,0.4,0.1,0.5,0.2c0.5,0.2,1,0.6,1.4,1.2
			c0.4,0.7,0.6,1.4,0.6,2.2c0,0.3-0.1,0.5-0.2,0.6c0,0.2-0.1,0.4-0.2,0.5c-0.1,0.1-0.2,0.1-0.4,0.1c-0.1,0-0.3,0-0.4,0.2
			c-0.1,0.1-0.3,0.6-0.5,1.3c-0.3,0.4-0.4,0.8-0.5,1.2c-0.2,0.6-0.4,0.9-0.4,1c-0.7,2.9-1.4,4.8-2,5.8c-0.6,1-1.2,1.4-1.8,1.4
			c-0.9-0.1-1.8-0.4-2.6-1.1c-0.8-0.7-1.2-1.4-1.1-2.1c0-0.3,0.3-0.4,0.8-0.4c0.5,0,0.8,0.1,0.7,0.3c0.6,0.6,1.1,0.9,1.6,1
			c0.6,0,1.1-0.8,1.6-2.4c0.7-2.3,1.1-3.7,1.3-4.1c-0.1,0-0.3,0.1-0.7,0.3c-0.4,0.2-0.7,0.3-0.9,0.4C95.5,32.9,95.3,32.9,95,32.9z
			 M99.5,27.8c0-0.2-0.2-0.3-0.5-0.4l-0.2,0c-0.5,0-1.2,0.2-2.1,0.7c-0.4,0.4-0.7,0.7-0.9,0.7l0.1,0c-0.1,0.2-0.3,0.4-0.5,0.7
			c-0.3,0.3-0.4,0.6-0.4,0.8c0,0.2,0,0.3,0.1,0.4c0.1,0.1,0.2,0.1,0.3,0.1c0.1,0,0.2,0,0.4,0.1c0.5,0,1.1-0.2,2-0.8s1.4-1.2,1.7-1.9
			C99.4,28,99.5,27.9,99.5,27.8z"/>
		<path class="st0" d="M108,26c2,0.2,2.9,1.1,2.7,2.7c-0.1,0.8-0.5,1.7-1.4,2.6c-0.9,0.9-1.7,1.3-2.5,1.2c-0.8-0.1-1.4-0.4-1.9-0.9
			c-0.4,0.6-0.5,1-0.6,1.4c0,0.4-0.1,0.6-0.1,0.7c0,0.1,0,0.3,0.1,0.5c0.1,0.3,0.3,0.5,0.6,0.5c0.3,0,0.6,0,0.8,0
			c0.2,0,0.4-0.1,0.5-0.1c0.1,0,0.3-0.1,0.5-0.3c0.2-0.1,0.4-0.2,0.6-0.3c0.2-0.1,0.3-0.1,0.5-0.2c0.1-0.1,0.2-0.1,0.3-0.2
			c0.1-0.1,0.2-0.1,0.3-0.1c0.3,0,0.5,0.1,0.7,0.3c0.2,0.2,0.3,0.4,0.3,0.6c0,0.2-0.2,0.5-0.6,0.8c-0.4,0.4-0.7,0.6-1,0.7l-0.3,0.1
			c-0.2,0.2-0.3,0.3-0.5,0.3l-0.2,0c-0.1,0.1-0.3,0.3-0.7,0.4c-0.4,0.1-0.8,0.1-1.1,0.1c-2-0.2-2.9-1.4-2.7-3.7
			c0.1-1.3,0.7-2.7,1.7-4.2C105.2,26.8,106.6,25.9,108,26z M105.6,29.8c0.1,0,0.1,0,0.2,0c0.1,0,0.2,0.1,0.3,0.3
			c0.1,0.2,0.3,0.3,0.5,0.4c0.5,0,0.9-0.1,1.3-0.5c0.4-0.4,0.6-0.7,0.6-1c0.1-0.6-0.1-1-0.4-1c-0.3,0-0.6,0.1-1,0.3
			c-0.4,0.2-0.8,0.6-1.1,1L105.6,29.8z"/>
		<path class="st0" d="M119.8,29.2l0-0.6c0-0.3,0.2-0.5,0.5-0.6s0.6-0.2,1-0.1c0.4,0.1,0.7,0.3,0.8,0.6c0.2,0.4,0.2,0.7,0.2,1
			c-0.1,0.3-0.2,0.6-0.4,0.9l-1.3,2.1c0,0.1,0,0.1,0,0.1c0,0.1,0.3-0.1,0.8-0.4c0.5-0.3,1.1-0.7,2-1.1c0.9-0.4,1.5-0.7,1.9-0.7
			c0.2,0,0.5,0.2,0.8,0.6c0.3,0.4,0.4,0.8,0.3,1.2c-0.5,1.1-0.8,1.8-0.9,1.9c0.4-0.3,1-0.7,2-1.1c0.9-0.4,1.6-0.6,1.9-0.6
			c0.6,0.1,0.9,0.4,1,1c0.1,0.6,0.1,1.2,0,2.1c-0.1,0.8-0.1,1.4,0,1.7c0,0.1,0.1,0.2,0.3,0.3c0.2,0.1,0.3,0.2,0.5,0.3
			c0.1,0.1,0.2,0.3,0.1,0.6c-0.1,0.7-0.7,0.9-1.9,0.7c-0.5-0.1-0.9-0.4-1.2-1c-0.3-0.6-0.4-1.3-0.2-2c0.1-0.3,0.1-0.6,0.2-0.9
			c0.1-0.3,0.1-0.5,0.2-0.5c0-0.1,0-0.1-0.1-0.1c-0.5-0.1-1.6,0.6-3.4,2c-0.1,0-0.1,0.1-0.2,0.1c-0.2,0.1-0.4,0.2-0.6,0.4
			c-0.6,0.4-1,0.6-1.2,0.5c-0.2,0-0.4-0.1-0.5-0.2l-0.2-0.3c-0.2-0.2-0.3-0.4-0.2-0.7l0-0.1l0.9-1.6c0.6-0.9,0.9-1.4,0.9-1.5
			c0-0.1,0-0.2,0-0.2c-0.3,0-0.8,0.3-1.7,0.9c-0.9,0.7-1.5,1.2-1.8,1.4c-0.3,0.2-0.6,0.5-1,0.8c-0.3,0.3-0.6,0.5-0.9,0.7
			c-0.2,0.2-0.4,0.3-0.4,0.3c-0.4-0.1-0.7-0.3-1-0.6c-0.3-0.3-0.4-0.7-0.3-1c0.1-0.3,0.1-0.6,0.2-0.9c0.1-0.3,0.2-0.6,0.5-1.1
			c0.2-0.5,0.3-0.8,0.4-1c0.1-0.2,0.1-0.3,0.2-0.5s0.1-0.3,0.1-0.3c0,0,0.1-0.2,0.2-0.3c0.1-0.2,0.2-0.4,0.4-0.6
			c0.1-0.2,0.3-0.5,0.6-1C119.7,29.7,119.8,29.5,119.8,29.2z"/>
		<path class="st0" d="M136.1,36.9c-0.5-0.1-0.8-0.2-0.9-0.3c-0.2-0.1-0.3,0-0.5,0.3l-0.2,0.5c-0.2,0.4-0.1,0.8,0.1,1.2
			c0.1,0.2,0.3,0.3,0.6,0.4c0.3,0,0.6,0,0.8-0.1c0.3-0.1,0.6-0.3,0.9-0.5c0.3-0.2,0.5-0.4,0.7-0.4c0.2-0.3,0.7-0.2,1.3,0.1
			c0.3,0.4,0.1,0.9-0.5,1.7c-0.1,0.2-0.5,0.4-1,0.7c-0.5,0.3-0.9,0.5-1.2,0.6c-1,0.3-2,0.1-2.9-0.5c-1.2-0.8-1.4-2.2-0.7-4.2
			c0.1-0.5,0.2-0.8,0.2-1.1c0-0.2-0.1-0.4-0.2-0.5c-0.1-0.1-0.2-0.2-0.3-0.4c-0.2-0.3-0.3-0.5-0.3-0.6c0-0.1,0.1-0.2,0.2-0.4
			c0.1-0.2,0.2-0.3,0.3-0.3c0.4-0.1,0.7-0.1,0.7-0.1c0.1,0,0.2,0.1,0.3,0.2c0.1,0.1,0.2,0.2,0.2,0.3c0,0.2,0.3,0.1,0.7-0.4
			c0.1-0.1,0.2-0.3,0.3-0.4c0.3-0.3,0.7-0.6,1.2-0.8c0.5-0.3,0.9-0.4,1.2-0.5c0.3-0.1,0.7-0.1,1.1-0.1c0.5,0,0.8,0,1,0.1
			c0.6,0.2,1.1,0.7,1.5,1.5c0.3,0.3,0.3,0.7,0.3,1.3c-0.1,0.6-0.2,1-0.5,1.3c-0.1,0.2-0.6,0.6-1.3,0.9c-0.7,0.4-1.3,0.6-1.7,0.7
			C137,37.1,136.6,37.1,136.1,36.9z M138.7,33.6c-0.2-0.3-0.5-0.3-1-0.1c-0.2,0-0.5,0.1-0.8,0.3c-0.4,0.2-0.7,0.4-0.9,0.6
			c-0.3,0.2-0.4,0.4-0.3,0.4c0,0,0,0.1,0,0.1c0.1,0,0.1,0.1,0.2,0.1c0.1,0,0.2,0.1,0.3,0.1c0.1,0,0.2,0,0.5,0c0.2,0,0.5,0,0.8-0.1
			c0.3-0.1,0.6-0.3,1-0.7C138.7,34,138.8,33.7,138.7,33.6z"/>
		<path class="st0" d="M140.5,40.1c0.4-0.1,0.7-0.2,0.8-0.2c0.2,0,0.4,0.2,0.7,0.4c0.5,0.5,0.6,1,0.5,1.4c-0.2,0.4-0.7,0.7-1.4,0.9
			c-0.7,0.1-1.3-0.1-1.6-0.6C138.9,41.1,139.3,40.5,140.5,40.1z M146.2,31.4l0.6-0.8c0.4-0.4,1.1-1.3,2.1-2.5c0.9-1.3,1.5-2,1.5-2.2
			c0.1-0.2,0.2-0.3,0.3-0.4c0.1-0.1,0.2-0.1,0.3,0c0.1,0,0.3,0,0.6,0.1c0.3,0.2,0.4,0.3,0.5,0.6c0.1,0.2,0.1,0.5,0,0.8
			c-0.1,0.3-0.2,0.6-0.2,0.7c-0.1,0.1-0.1,0.2-0.2,0.3c-0.1,0.1-0.2,0.2-0.3,0.4c-0.1,0.2-0.2,0.3-0.3,0.3c-0.1,0.1-0.4,0.4-0.8,0.8
			c-0.7,0.8-1.1,1.3-1.1,1.3c0,0-0.2,0.3-0.5,0.7c-0.2,0.2-0.4,0.5-0.7,0.8c-0.2,0.4-0.4,0.6-0.4,0.7c-0.1,0.2-0.2,0.3-0.3,0.4
			c-0.1,0-0.1,0-0.2,0.2l0,0.1c-0.1,0.2-0.3,0.6-0.8,1.2c-1,1.5-1.6,2.6-1.8,3.2c-0.2,0.6-0.6,1-1,1.1c-0.6,0-0.9-0.3-1-0.9
			c-0.1-0.6,0.1-1.4,0.7-2.6c0.4-0.4,0.6-0.7,0.6-1c0.4-0.7,0.9-1.3,1.4-1.9c0.1,0,0.2,0,0.3-0.1c0.1-0.1,0.2-0.3,0.3-0.5
			C145.9,31.7,146,31.5,146.2,31.4z"/>
	</g>
</g>
</svg>
