<?xml version="1.0" encoding="utf-8"?>
<!-- Generator: Adobe Illustrator 26.0.2, SVG Export Plug-In . SVG Version: 6.00 Build 0)  -->
<svg version="1.1" id="Layer_1" xmlns="http://www.w3.org/2000/svg" xmlns:xlink="http://www.w3.org/1999/xlink" x="0px" y="0px"
	 viewBox="0 0 1258.7 245.3" style="enable-background:new 0 0 1258.7 245.3;" xml:space="preserve">
<style type="text/css">
	.st0{fill:#FFFFFF;}
	.st1{fill:#4CAB82;}
	.st2{fill:#DDAA5C;}
	.st3{fill:#CFD1D3;}
</style>
<g>
	<path class="st0" d="M376.8,62.2c-7.2,0-13.6,1.4-19.3,4.2c-5.7,2.8-10.3,6.6-13.7,11.4V63.3h-33.4v109h33.4v-59.2
		c0-7.3,1.9-13,5.7-17c3.8-4,8.9-6.1,15.2-6.1c6.4,0,11.5,2,15.2,6.1c3.8,4,5.7,9.7,5.7,17v59.2h33.2v-63.7
		c0-14.5-3.8-25.8-11.4-34.1C399.8,66.3,389.6,62.2,376.8,62.2z"/>
	<path class="st0" d="M520.9,68.6c-8.6-4.6-18.2-6.8-28.9-6.8c-10.7,0-20.3,2.3-28.9,6.8c-8.6,4.6-15.4,11.1-20.3,19.6
		c-5,8.5-7.4,18.4-7.4,29.6c0,11.3,2.4,21.2,7.3,29.7c4.9,8.5,11.6,15,20.1,19.5c8.5,4.6,18.1,6.8,28.8,6.8c10.7,0,20.3-2.3,29-6.8
		c8.7-4.6,15.5-11.1,20.5-19.6c5-8.5,7.5-18.4,7.5-29.6c0-11.2-2.5-21.1-7.4-29.6C536.3,79.7,529.5,73.2,520.9,68.6z M507.9,137.9
		c-4.5,4.7-9.9,7-16.3,7c-6.4,0-11.7-2.3-15.9-7c-4.2-4.7-6.3-11.4-6.3-20.1c0-8.9,2.1-15.6,6.4-20.2c4.3-4.6,9.7-6.9,16.2-6.9
		c6.4,0,11.7,2.3,16.1,7c4.4,4.7,6.5,11.4,6.5,20.1C514.7,126.6,512.4,133.3,507.9,137.9z"/>
	<path class="st0" d="M599.8,81.5V63.3h-33.4v109h33.4v-50.6c0-9,2.1-15.3,6.3-18.8c4.2-3.6,10.4-5.4,18.7-5.4h9.2V62.2
		c-7.2,0-13.7,1.7-19.5,5.2C608.6,70.8,603.7,75.5,599.8,81.5z"/>
	<path class="st0" d="M691,141.9c-1.6-1.4-2.3-3.8-2.3-7V91.1h21.9V63.3h-21.9V36.8h-33.4v26.6H642v27.7h13.3v43.4
		c0,13.4,3.4,23.1,10.2,29c6.8,5.9,16.2,8.9,28.3,8.9h17V144h-11.9C695.2,144,692.6,143.3,691,141.9z"/>
	<path class="st0" d="M796.3,62.2c-7.3,0-13.9,1.4-19.7,4.3c-5.9,2.9-10.5,6.7-13.9,11.5V27.8h-33.4v144.5h33.4v-59.2
		c0-7.3,1.9-13,5.7-17c3.8-4,8.9-6.1,15.2-6.1c6.4,0,11.5,2,15.2,6.1c3.8,4,5.7,9.7,5.7,17v59.2h33.2v-63.7
		c0-14.5-3.8-25.8-11.3-34.1C818.8,66.3,808.8,62.2,796.3,62.2z"/>
	<path class="st0" d="M947.4,69.1c-8-4.7-17.2-7-27.1-7c-10.5,0-19.7,2.5-27.4,7.5c-5.2,3.4-9.6,7.4-12.9,12V63.6h-17.7v161.2H880
		v-68.3c3.4,4.6,7.7,8.6,13,12c7.7,5,16.9,7.5,27.3,7.5c10,0,19.1-2.4,27.1-7.1c8-4.7,14.4-11.5,19-20.2c4.5-8.6,6.8-18.6,6.8-29.9
		c0-11.2-2.3-21.2-6.8-29.8C961.8,80.4,955.4,73.7,947.4,69.1z M917.5,78.1c7.1,0,13.6,1.6,19.3,4.8c5.6,3.2,10.1,7.9,13.3,13.9
		c3.3,6.1,4.9,13.5,4.9,22c0,8.3-1.7,15.7-4.9,22c-3.2,6.2-7.7,11-13.3,14.2c-5.6,3.2-12.1,4.9-19.3,4.9c-6.9,0-13.3-1.7-19-5
		c-5.7-3.3-10.3-8.1-13.6-14.2c-3.3-6.2-5-13.5-5-21.7c0-8.2,1.7-15.5,5-21.7c3.3-6.1,7.9-10.9,13.6-14.2
		C904.3,79.8,910.7,78.1,917.5,78.1z"/>
	<path class="st0" d="M1081,81.3c-3.3-4.6-7.5-8.6-12.7-11.9c-7.7-4.9-16.9-7.4-27.4-7.4c-10.1,0-19.3,2.4-27.3,7
		c-8.1,4.7-14.4,11.4-19,20c-4.5,8.5-6.8,18.5-6.8,29.8c0,11.2,2.3,21.3,6.8,29.9c4.5,8.6,10.9,15.4,19,20.2
		c8,4.7,17.2,7.1,27.1,7.1c10.5,0,19.7-2.5,27.4-7.5c5.2-3.4,9.6-7.4,12.9-12.1v18h17.9V63.6H1081V81.3z M1043.5,159.9
		c-7.1,0-13.6-1.6-19.3-4.9c-5.6-3.2-10.1-8-13.3-14.2c-3.3-6.2-4.9-13.6-4.9-22c0-8.5,1.7-15.9,4.9-22c3.2-6.1,7.7-10.7,13.3-13.9
		c5.6-3.2,12.1-4.8,19.3-4.8c6.9,0,13.3,1.7,19,5c5.7,3.3,10.2,8.1,13.6,14.2c3.3,6.2,5,13.5,5,21.7c0,8.2-1.7,15.5-5,21.7
		c-3.3,6.1-7.9,10.9-13.6,14.2C1056.8,158.2,1050.4,159.9,1043.5,159.9z"/>
	<path class="st0" d="M1212.9,25.7v55.5c-3.5-4.7-8-8.7-13.4-12c-7.9-4.7-16.8-7.1-26.5-7.1c-10.1,0-19.3,2.4-27.3,7
		c-8.1,4.7-14.5,11.4-19.1,20c-4.6,8.5-6.9,18.6-6.9,29.8c0,11.2,2.3,21.3,6.8,29.9c4.5,8.6,10.9,15.4,19,20.2
		c8,4.7,17.2,7.1,27.3,7.1c10.4,0,19.6-2.5,27.3-7.5c5.2-3.4,9.5-7.4,12.8-12.1v18h17.9V25.7H1212.9z M1175.3,159.9
		c-7.1,0-13.6-1.6-19.3-4.9c-5.6-3.2-10.1-8-13.3-14.2c-3.3-6.2-4.9-13.6-4.9-22c0-8.5,1.7-15.9,4.9-22c3.2-6.1,7.7-10.7,13.3-13.9
		c5.6-3.2,12.1-4.8,19.3-4.8c6.9,0,13.3,1.7,19,5c5.7,3.3,10.2,8.1,13.6,14.2c3.3,6.2,5,13.5,5,21.7c0,8.2-1.7,15.5-5,21.7
		c-3.3,6.1-7.9,10.9-13.6,14.2C1188.6,158.2,1182.2,159.9,1175.3,159.9z"/>
</g>
<g>
	<g>
		<path class="st0" d="M189.9,14.2H83.7v215.6h106.2c14.5,0,26.4-11.9,26.4-26.4V40.6C216.2,26.1,204.4,14.2,189.9,14.2z"/>
		<path class="st1" d="M62.6,14.2c-14.5,0-26.4,11.9-26.4,26.4v162.9c0,14.5,11.9,26.4,26.4,26.4h11.2V14.2H62.6z M55.2,200.9
			c-4.1,0-7.4-3.3-7.4-7.4c0-4.1,3.3-7.4,7.4-7.4c4.1,0,7.4,3.3,7.4,7.4C62.6,197.6,59.2,200.9,55.2,200.9z M55.2,165.8
			c-4.1,0-7.4-3.3-7.4-7.4c0-4.1,3.3-7.4,7.4-7.4c4.1,0,7.4,3.3,7.4,7.4C62.6,162.4,59.2,165.8,55.2,165.8z M55.2,130.6
			c-4.1,0-7.4-3.3-7.4-7.4c0-4.1,3.3-7.4,7.4-7.4c4.1,0,7.4,3.3,7.4,7.4C62.6,127.3,59.2,130.6,55.2,130.6z M55.2,95.4
			c-4.1,0-7.4-3.3-7.4-7.4c0-4.1,3.3-7.4,7.4-7.4c4.1,0,7.4,3.3,7.4,7.4C62.6,92.1,59.2,95.4,55.2,95.4z M55.2,60.3
			c-4.1,0-7.4-3.3-7.4-7.4c0-4.1,3.3-7.4,7.4-7.4c4.1,0,7.4,3.3,7.4,7.4C62.6,56.9,59.2,60.3,55.2,60.3z"/>
	</g>
	<path class="st2" d="M55.5,49.6L55.5,49.6l-0.5,0h-4H33.1c-4.5,0-8.2-3.7-8.2-8.2c0-4.5,3.7-8.2,8.2-8.2h4.2
		c0.7-2.3,1.6-4.5,2.9-6.4h-7c-8.1,0-14.6,6.6-14.6,14.6c0,8.1,6.6,14.6,14.6,14.6H51h4h0.5v0c1.8,0,3.2-1.5,3.2-3.2
		C58.7,51.1,57.2,49.7,55.5,49.6z"/>
	<path class="st2" d="M55.5,84.8L55.5,84.8l-4.5,0v0H33.1c-4.5,0-8.2-3.7-8.2-8.2c0-4.5,3.7-8.2,8.2-8.2h3.1V62h-3.1
		c-8.1,0-14.6,6.6-14.6,14.6s6.6,14.6,14.6,14.6H55v0h0.5v0c1.8,0,3.2-1.5,3.2-3.2S57.2,84.8,55.5,84.8z"/>
	<path class="st2" d="M55.5,120L55.5,120l-4.5,0v0H33.1c-4.5,0-8.2-3.7-8.2-8.2c0-4.5,3.7-8.2,8.2-8.2h3.1v-6.4h-3.1
		c-8.1,0-14.6,6.6-14.6,14.6c0,8.1,6.6,14.6,14.6,14.6H55v0h0.5v0c1.8,0,3.2-1.5,3.2-3.2S57.2,120,55.5,120z"/>
	<path class="st2" d="M55.5,155.1L55.5,155.1l-4.5,0v0H33.1c-4.5,0-8.2-3.7-8.2-8.2c0-4.5,3.7-8.2,8.2-8.2h3.1v-6.4h-3.1
		c-8.1,0-14.6,6.6-14.6,14.6c0,8.1,6.6,14.6,14.6,14.6H55v0h0.5v0c1.8,0,3.2-1.5,3.2-3.2C58.7,156.6,57.2,155.2,55.5,155.1z"/>
	<path class="st2" d="M55.5,190.3L55.5,190.3l-4.5,0v0H33.1c-4.5,0-8.2-3.7-8.2-8.2s3.7-8.2,8.2-8.2h3.1v-6.4h-3.1
		c-8.1,0-14.6,6.6-14.6,14.6s6.6,14.6,14.6,14.6H55v0h0.5v0c1.8,0,3.2-1.5,3.2-3.2C58.7,191.7,57.2,190.3,55.5,190.3z"/>
	<path class="st3" d="M202.2,52.2h-99.9c-0.3,0-0.5-0.2-0.5-0.5v-3c0-0.3,0.2-0.5,0.5-0.5h99.9c0.3,0,0.5,0.2,0.5,0.5v3
		C202.7,52,202.5,52.2,202.2,52.2z"/>
	<path class="st3" d="M202.2,79.4h-99.9c-0.3,0-0.5-0.2-0.5-0.5v-3c0-0.3,0.2-0.5,0.5-0.5h99.9c0.3,0,0.5,0.2,0.5,0.5v3
		C202.7,79.2,202.5,79.4,202.2,79.4z"/>
	<path class="st3" d="M202.2,106.6h-99.9c-0.3,0-0.5-0.2-0.5-0.5v-3c0-0.3,0.2-0.5,0.5-0.5h99.9c0.3,0,0.5,0.2,0.5,0.5v3
		C202.7,106.4,202.5,106.6,202.2,106.6z"/>
	<path class="st3" d="M202.2,133.8h-99.9c-0.3,0-0.5-0.2-0.5-0.5v-3c0-0.3,0.2-0.5,0.5-0.5h99.9c0.3,0,0.5,0.2,0.5,0.5v3
		C202.7,133.6,202.5,133.8,202.2,133.8z"/>
	<path class="st3" d="M202.2,161h-99.9c-0.3,0-0.5-0.2-0.5-0.5v-3c0-0.3,0.2-0.5,0.5-0.5h99.9c0.3,0,0.5,0.2,0.5,0.5v3
		C202.7,160.8,202.5,161,202.2,161z"/>
	<path class="st3" d="M188.6,188.2h-41.6c-0.3,0-0.5-0.2-0.5-0.5v-3c0-0.3,0.2-0.5,0.5-0.5h41.6c0.3,0,0.5,0.2,0.5,0.5v3
		C189.1,187.9,188.9,188.2,188.6,188.2z"/>
	<path class="st3" d="M141.8,188.2H125c-0.3,0-0.5-0.2-0.5-0.5v-3c0-0.3,0.2-0.5,0.5-0.5h16.8c0.3,0,0.5,0.2,0.5,0.5v3
		C142.3,187.9,142,188.2,141.8,188.2z"/>
</g>
</svg>
